<?xml version="1.0" encoding="UTF-8" standalone="no"?>
<!-- Created with Inkscape (http://www.inkscape.org/) -->

<svg
   version="1.1"
   id="svg2"
   xml:space="preserve"
   width="533.33331"
   height="133.33333"
   viewBox="0 0 533.33331 133.33333"
   sodipodi:docname="SV Logo.ai"
   xmlns:inkscape="http://www.inkscape.org/namespaces/inkscape"
   xmlns:sodipodi="http://sodipodi.sourceforge.net/DTD/sodipodi-0.dtd"
   xmlns="http://www.w3.org/2000/svg"
   xmlns:svg="http://www.w3.org/2000/svg"><defs
     id="defs6"><clipPath
       clipPathUnits="userSpaceOnUse"
       id="clipPath16"><path
         d="M 7.185,0 H 392.816 V 95.527 H 7.185 Z"
         id="path14" /></clipPath><clipPath
       clipPathUnits="userSpaceOnUse"
       id="clipPath28"><path
         d="m 170.148,95.495 c -9.594,-0.437 -16.349,-5.417 -20.266,-14.941 v 0 c -1.665,4.186 -4.875,7.502 -9.634,9.945 v 0 c -4.372,2.226 -8.953,3.232 -13.749,3.013 v 0 c -7.012,-0.318 -12.643,-2.763 -16.89,-7.337 v 0 c -4.211,-4.533 -5.955,-10.165 -5.231,-16.897 v 0 c 0.736,-6.85 3.791,-13.046 9.166,-18.591 v 0 c 4.98,-4.506 9.941,-9.034 14.885,-13.581 v 0 c 5.389,-5.7 8.474,-12.166 9.254,-19.406 v 0 c 0.301,-2.802 0.313,-5.753 0.039,-8.857 v 0 c 15.821,8.424 28.872,17.385 39.15,26.886 v 0 c 14.769,13.693 21.485,26.767 20.148,39.221 v 0 c -0.661,6.148 -3.759,11.23 -9.293,15.242 v 0 c -4.898,3.556 -10.306,5.335 -16.219,5.335 v 0 c -0.451,0 -0.905,-0.012 -1.36,-0.032"
         id="path26" /></clipPath><clipPath
       clipPathUnits="userSpaceOnUse"
       id="clipPath48"><path
         d="M 0,100 H 400 V 0 H 0 Z"
         id="path46" /></clipPath></defs><sodipodi:namedview
     id="namedview4"
     pagecolor="#ffffff"
     bordercolor="#666666"
     borderopacity="1.0"
     inkscape:pageshadow="2"
     inkscape:pageopacity="0.0"
     inkscape:pagecheckerboard="0" /><g
     id="g8"
     inkscape:groupmode="layer"
     inkscape:label="SV Logo"
     transform="matrix(1.3333333,0,0,-1.3333333,0,133.33333)"><g
       id="g10"><g
         id="g12"
         clip-path="url(#clipPath16)"><g
           id="g18"
           transform="translate(197.0195,74.9507)"><path
             d="m 0,0 c -0.66,6.147 -3.758,11.228 -9.292,15.241 -5.273,3.827 -11.132,5.596 -17.579,5.302 -9.593,-0.436 -16.349,-5.416 -20.266,-14.939 -1.665,4.185 -4.877,7.501 -9.634,9.945 -4.373,2.225 -8.955,3.231 -13.75,3.013 -7.012,-0.32 -12.642,-2.764 -16.889,-7.336 -4.212,-4.535 -5.955,-10.167 -5.233,-16.898 0.738,-6.851 3.791,-13.048 9.166,-18.592 4.981,-4.508 9.942,-9.033 14.886,-13.578 5.391,-5.702 8.476,-12.169 9.254,-19.408 0.301,-2.803 0.314,-5.752 0.04,-8.857 15.82,8.422 28.871,17.385 39.151,26.886 C -5.38,-25.529 1.338,-12.455 0,0"
             style="fill:#febe2a;fill-opacity:1;fill-rule:evenodd;stroke:none"
             id="path20" /></g></g></g><g
       id="g22"><g
         id="g24"
         clip-path="url(#clipPath28)"><g
           id="g30"
           transform="translate(110.8506,27.1523)"><path
             d="m 0,0 c 0.04,-0.051 0.051,-0.111 0.111,-0.163 0.031,-0.029 0.153,-0.081 0.254,-0.081 l 0.437,-0.254 0.925,0.214 c 0.608,-0.447 0.983,-1.26 1.969,-1.341 l 0.345,0.152 c 1.797,-1.075 4.164,0.304 5.799,1.006 2.74,1.472 5.725,2.731 8.63,4.03 3.046,1.229 5.898,2.518 8.967,3.697 0.303,0.06 0.456,0.203 0.668,0.213 C 27.11,5.421 25.02,3.321 24.887,0.66 c 1.309,-0.944 3.077,-0.487 4.59,-0.306 1.939,0.437 3.96,0.691 5.889,1.139 3.452,0.802 6.975,1.441 10.418,2.264 3.461,0.853 6.732,1.624 10.163,2.457 0.65,0.092 1.219,0.365 1.778,0.365 -1.869,-1.908 -4.102,-3.787 -5.362,-6.011 0.01,-0.214 0.05,-0.345 0.153,-0.377 3.817,-0.568 7.657,0.508 11.524,1.119 h 0.163 c 3.786,0.183 7.443,1.482 11.077,1.603 1.452,0 2.742,0.103 4.133,0.235 l 2.661,0.365 c -0.093,0.112 -0.051,0.02 -0.031,0.132 3.422,0.397 6.885,0 10.327,-0.457 l 0.345,0.133 c 0.141,0.079 0.06,0.324 0.202,0.436 0,0.02 0,0.112 -0.039,0.162 C 89.567,5.726 85.292,5.035 81.524,5.229 77.605,5.005 73.706,4.569 69.838,4.173 66.985,3.919 64.172,3.827 61.39,3.492 61.066,3.432 60.7,3.4 60.445,3.513 c 0.346,0.66 1.127,1.025 1.706,1.522 1.565,1.412 3.91,2.306 4.539,4.61 -0.081,0.345 -0.223,0.661 -0.355,0.802 -0.508,0.711 -1.492,0.935 -2.579,0.895 C 60.334,10.752 57.115,9.564 53.724,8.661 51.358,8.082 49.012,7.381 46.729,6.854 43.093,6.041 39.55,4.965 35.965,4.904 c -1.483,0 -2.935,-0.467 -4.346,-0.335 0.812,1.564 2.619,3.127 3.433,4.985 0.141,0.183 0.294,0.234 0.314,0.406 0.091,0.894 -0.366,1.696 -1.178,2.255 -0.213,0.081 -0.264,0.244 -0.446,0.283 C 30.146,12.813 26.431,11.88 22.825,10.772 19.577,9.737 16.449,8.619 13.788,7.26 12.153,6.306 10.489,5.441 8.813,4.61 8.752,4.61 8.672,4.619 8.57,4.659 5.371,3.513 2.752,2.091 0.284,0.416 0.142,0.264 0.051,0.191 -0.042,0.11 Z"
             style="fill:#01beef;fill-opacity:1;fill-rule:nonzero;stroke:none"
             id="path32" /></g><g
           id="g34"
           transform="translate(127.9912,43.96)"><path
             d="m 0,0 c 0.041,-0.051 0.05,-0.111 0.11,-0.161 0.032,-0.031 0.154,-0.082 0.255,-0.082 l 0.437,-0.254 0.924,0.213 c 0.609,-0.446 0.984,-1.26 1.969,-1.34 l 0.346,0.152 c 1.797,-1.076 4.163,0.304 5.798,1.005 2.741,1.473 5.725,2.732 8.631,4.031 3.046,1.229 5.899,2.519 8.966,3.697 0.303,0.06 0.457,0.202 0.669,0.212 -0.995,-2.05 -3.086,-4.152 -3.219,-6.813 1.309,-0.944 3.078,-0.487 4.591,-0.304 1.938,0.435 3.96,0.69 5.888,1.137 3.452,0.802 6.976,1.441 10.418,2.264 3.463,0.853 6.732,1.625 10.164,2.458 0.651,0.091 1.218,0.365 1.777,0.365 C 55.856,4.671 53.622,2.792 52.362,0.568 52.373,0.356 52.413,0.224 52.515,0.193 56.332,-0.375 60.172,0.7 64.04,1.31 h 0.162 c 3.787,0.183 7.443,1.482 11.078,1.604 1.451,0 2.741,0.102 4.133,0.234 l 2.66,0.366 c -0.091,0.111 -0.051,0.019 -0.031,0.132 3.422,0.396 6.885,0 10.328,-0.458 l 0.346,0.133 c 0.141,0.08 0.059,0.325 0.202,0.436 0,0.02 0,0.112 -0.041,0.163 C 89.566,5.728 85.293,5.036 81.523,5.229 77.604,5.005 73.706,4.568 69.839,4.174 66.984,3.92 64.171,3.828 61.389,3.493 61.065,3.432 60.699,3.401 60.445,3.514 c 0.346,0.66 1.127,1.025 1.706,1.522 1.564,1.411 3.911,2.305 4.539,4.611 -0.082,0.344 -0.223,0.659 -0.356,0.802 -0.507,0.709 -1.491,0.933 -2.579,0.893 C 60.334,10.753 57.115,9.565 53.725,8.661 51.358,8.082 49.012,7.382 46.728,6.854 43.093,6.042 39.549,4.965 35.964,4.904 c -1.483,0 -2.934,-0.467 -4.345,-0.336 0.812,1.565 2.619,3.129 3.432,4.987 0.142,0.183 0.294,0.234 0.314,0.406 0.091,0.893 -0.366,1.696 -1.177,2.254 -0.213,0.082 -0.264,0.244 -0.447,0.284 C 30.146,12.813 26.43,11.88 22.825,10.773 19.577,9.738 16.448,8.621 13.788,7.261 12.154,6.306 10.488,5.441 8.813,4.61 8.752,4.61 8.671,4.62 8.569,4.661 5.37,3.514 2.751,2.092 0.283,0.417 0.142,0.264 0.05,0.193 -0.042,0.111 Z"
             style="fill:#68b045;fill-opacity:1;fill-rule:nonzero;stroke:none"
             id="path36" /></g><g
           id="g38"
           transform="translate(141.2256,60.7622)"><path
             d="m 0,0 c 0.04,-0.051 0.051,-0.112 0.111,-0.162 0.031,-0.031 0.153,-0.082 0.254,-0.082 l 0.437,-0.254 0.924,0.214 c 0.609,-0.447 0.984,-1.26 1.969,-1.342 l 0.346,0.153 c 1.798,-1.075 4.163,0.306 5.798,1.006 2.741,1.471 5.726,2.731 8.631,4.03 3.047,1.229 5.899,2.519 8.967,3.697 0.303,0.061 0.456,0.202 0.668,0.214 C 27.11,5.422 25.019,3.32 24.887,0.66 c 1.308,-0.944 3.076,-0.487 4.591,-0.305 1.938,0.437 3.959,0.69 5.888,1.138 3.452,0.802 6.975,1.441 10.418,2.263 3.463,0.854 6.732,1.625 10.163,2.457 0.651,0.091 1.219,0.366 1.778,0.366 C 55.856,4.67 53.623,2.792 52.362,0.568 52.374,0.355 52.414,0.224 52.516,0.193 56.333,-0.376 60.172,0.7 64.041,1.31 h 0.162 c 3.786,0.183 7.442,1.482 11.078,1.604 1.451,0 2.74,0.102 4.132,0.234 l 2.66,0.365 c -0.092,0.112 -0.051,0.021 -0.03,0.132 3.421,0.396 6.884,0 10.326,-0.457 l 0.346,0.132 c 0.141,0.081 0.06,0.325 0.202,0.436 0,0.022 0,0.113 -0.04,0.163 -3.31,1.807 -7.585,1.117 -11.352,1.31 -3.92,-0.223 -7.819,-0.66 -11.686,-1.056 -2.854,-0.254 -5.667,-0.344 -8.45,-0.681 -0.325,-0.06 -0.69,-0.091 -0.944,0.021 0.345,0.66 1.128,1.025 1.706,1.523 1.564,1.412 3.91,2.304 4.539,4.609 -0.081,0.346 -0.223,0.66 -0.356,0.802 -0.507,0.711 -1.491,0.935 -2.578,0.895 C 60.334,10.753 57.114,9.564 53.725,8.661 51.357,8.083 49.013,7.381 46.728,6.853 43.092,6.04 39.549,4.965 35.965,4.904 c -1.483,0 -2.935,-0.466 -4.346,-0.335 0.812,1.563 2.619,3.128 3.433,4.985 0.142,0.183 0.294,0.235 0.314,0.405 0.091,0.895 -0.366,1.698 -1.178,2.256 -0.213,0.08 -0.264,0.243 -0.446,0.284 C 30.146,12.813 26.431,11.88 22.825,10.772 19.577,9.737 16.448,8.62 13.789,7.26 12.154,6.304 10.488,5.442 8.813,4.61 8.752,4.61 8.672,4.62 8.57,4.66 5.371,3.513 2.752,2.091 0.284,0.417 0.142,0.264 0.051,0.193 -0.04,0.111 Z"
             style="fill:#ffffff;fill-opacity:1;fill-rule:nonzero;stroke:none"
             id="path40" /></g></g></g><g
       id="g42"><g
         id="g44"
         clip-path="url(#clipPath48)"><g
           id="g50"
           transform="translate(7.1846,31.668)"><path
             d="m 0,0 v 8.16 h 8.787 c 0,-5.58 0.034,-8.892 0.106,-9.939 0.347,-5.858 3.311,-8.786 8.891,-8.786 6.206,0 9.309,3.069 9.309,9.205 0,2.651 -0.593,5.021 -1.777,7.114 -0.907,1.463 -2.582,3.453 -5.021,5.964 l -10.043,10.25 c -3.348,3.418 -5.648,6.555 -6.904,9.414 -1.046,2.441 -1.57,5.44 -1.57,8.997 0,11.506 5.719,17.261 17.157,17.261 6.554,0 11.053,-2.023 13.493,-6.068 0.977,-1.604 1.604,-3.487 1.885,-5.648 0.138,-1.605 0.208,-5.337 0.208,-11.195 h -8.054 c -0.071,2.582 -0.209,5.616 -0.421,9.103 -0.627,3.974 -3.171,5.962 -7.635,5.962 -5.161,0 -7.74,-2.928 -7.74,-8.787 0,-2.581 0.558,-4.812 1.672,-6.695 0.767,-1.326 2.617,-3.522 5.546,-6.59 l 9.308,-9.729 c 3.348,-3.487 5.58,-6.347 6.698,-8.577 1.392,-2.791 2.089,-6.173 2.089,-10.148 0,-6.833 -2.299,-11.751 -6.902,-14.751 -3,-1.95 -6.661,-2.927 -10.984,-2.927 -5.161,0 -9.277,1.22 -12.346,3.661 C 1.917,-11.682 0,-6.766 0,0"
             style="fill:#ffffff;fill-opacity:1;fill-rule:evenodd;stroke:none"
             id="path52" /></g><g
           id="g54"
           transform="translate(72.5068,88.7324)"><path
             d="m 0,0 h 9.311 v -49.794 c 0,-8.298 -0.593,-13.809 -1.78,-16.528 -2.439,-5.72 -7.809,-8.576 -16.109,-8.576 -8.439,0 -13.879,2.683 -16.319,8.051 -0.766,1.606 -1.255,3.35 -1.464,5.233 -0.14,1.883 -0.208,5.613 -0.208,11.192 V 0 h 9.308 v -53.874 c 0,-4.323 0.385,-7.288 1.151,-8.893 1.186,-2.788 3.766,-4.183 7.741,-4.183 3.487,0 5.858,1.081 7.113,3.243 0.697,1.186 1.082,3.104 1.151,5.754 0.071,2.16 0.105,5.16 0.105,8.995 z"
             style="fill:#ffffff;fill-opacity:1;fill-rule:evenodd;stroke:none"
             id="path56" /></g><g
           id="g58"
           transform="translate(121.0898,88.2617)"><path
             d="m 0,0 v -73.957 h -12.973 l -14.433,64.02 1.255,-64.02 h -8.996 V 0 h 12.552 L -7.637,-64.752 -8.893,0 Z"
             style="fill:#ffffff;fill-opacity:1;fill-rule:evenodd;stroke:none"
             id="path60" /></g><g
           id="g62"
           transform="translate(210.1719,88.209)"><path
             d="M 0,0 -15.273,-73.853 H -26.206 L -40.405,0 h 8.733 L -20.74,-63.576 -8.526,0 Z"
             style="fill:#ffffff;fill-opacity:1;fill-rule:evenodd;stroke:none"
             id="path64" /></g><g
           id="g66"
           transform="translate(223.5078,88.209)"><path
             d="M 0,0 16.319,-73.853 H 6.694 L 4.08,-59.628 h -17.155 l -2.511,-14.225 h -9.518 L -9.206,0 Z M -11.507,-51.678 H 2.511 l -7.217,37.974 z"
             style="fill:#ffffff;fill-opacity:1;fill-rule:evenodd;stroke:none"
             id="path68" /></g><g
           id="g70"
           transform="translate(275.0615,22.6191)"><path
             d="M 0,0 V -8.263 H -30.965 V 65.59 h 9.312 V 0 Z"
             style="fill:#ffffff;fill-opacity:1;fill-rule:evenodd;stroke:none"
             id="path72" /></g><g
           id="g74"
           transform="translate(310.3926,22.6191)"><path
             d="M 0,0 V -8.263 H -30.965 V 65.59 h 9.311 V 0 Z"
             style="fill:#ffffff;fill-opacity:1;fill-rule:evenodd;stroke:none"
             id="path76" /></g><g
           id="g78"
           transform="translate(347.8945,22.6191)"><path
             d="M 0,0 V -8.263 H -33.267 V 65.59 H -0.838 V 57.326 H -24.062 V 35.357 H -3.663 V 26.99 H -24.062 V 0 Z"
             style="fill:#ffffff;fill-opacity:1;fill-rule:evenodd;stroke:none"
             id="path80" /></g><g
           id="g82"
           transform="translate(376.6006,43.332)"><path
             d="M 0,0 V -28.976 H -9.52 V 0 l -15.691,44.878 h 9.833 L -4.499,7.95 6.484,44.878 h 9.731 z"
             style="fill:#ffffff;fill-opacity:1;fill-rule:evenodd;stroke:none"
             id="path84" /></g></g></g></g></svg>
