<?xml version="1.0" standalone="no"?>
<!DOCTYPE svg PUBLIC "-//W3C//DTD SVG 20010904//EN"
 "http://www.w3.org/TR/2001/REC-SVG-20010904/DTD/svg10.dtd">
<svg version="1.0" xmlns="http://www.w3.org/2000/svg"
 width="512.000000pt" height="512.000000pt" viewBox="0 0 512.000000 512.000000"
 preserveAspectRatio="xMidYMid meet">

<g transform="translate(0.000000,512.000000) scale(0.100000,-0.100000)"
fill="#000000" stroke="none">
<path d="M1333 5108 c-187 -17 -427 -96 -596 -194 -198 -117 -385 -296 -509
-490 -85 -132 -163 -328 -200 -497 -31 -147 -31 -427 0 -574 130 -600 598
-1056 1201 -1168 46 -8 98 -15 117 -15 63 0 96 70 56 120 -14 17 -41 25 -131
41 -856 146 -1352 1041 -1012 1829 174 403 528 687 974 781 133 28 360 31 492
5 249 -47 452 -144 646 -306 41 -34 81 -60 94 -60 38 0 75 37 75 75 0 27 -10
42 -57 85 -223 204 -539 340 -858 370 -123 11 -160 11 -292 -2z"/>
<path d="M1476 4681 c-41 -45 -14 -116 48 -125 17 -3 68 -10 113 -16 124 -17
268 -72 368 -139 40 -28 71 -26 100 4 32 31 33 75 3 102 -98 90 -344 180 -523
190 -83 5 -92 4 -109 -16z"/>
<path d="M1029 4599 c-296 -143 -494 -383 -581 -703 -19 -69 -22 -107 -22
-256 0 -150 3 -187 22 -257 98 -361 361 -642 709 -757 103 -34 153 -15 153 59
0 42 -20 57 -104 84 -270 86 -496 305 -588 571 -47 134 -62 318 -37 456 52
297 251 550 532 679 42 18 81 43 87 55 24 45 -14 110 -65 110 -12 0 -59 -18
-106 -41z"/>
<path d="M2645 4347 c-64 -21 -97 -42 -141 -89 -72 -74 -89 -118 -89 -228 0
-111 21 -167 90 -235 67 -68 124 -90 230 -90 101 0 142 14 201 70 44 42 47 93
8 124 -36 29 -51 27 -108 -14 -41 -29 -58 -35 -99 -35 -102 0 -177 77 -177
179 0 138 130 219 259 161 71 -33 109 -24 131 30 11 28 11 34 -7 58 -47 65
-202 101 -298 69z"/>
<path d="M3096 4339 l-26 -20 0 -290 c0 -357 -14 -329 163 -329 141 0 157 8
157 73 0 52 -35 77 -111 77 l-58 0 -3 236 c-3 234 -3 236 -27 255 -30 25 -62
24 -95 -2z"/>
<path d="M3515 4335 l-25 -24 0 -284 c0 -283 0 -284 23 -305 33 -31 80 -29
106 4 20 26 21 39 21 306 l0 279 -25 24 c-13 14 -36 25 -50 25 -14 0 -37 -11
-50 -25z"/>
<path d="M3958 4343 c-191 -72 -278 -278 -193 -457 28 -60 91 -123 157 -158
36 -19 58 -23 138 -23 109 0 154 17 208 80 37 41 41 76 12 105 -30 30 -66 35
-96 14 -77 -55 -78 -55 -136 -51 -70 4 -122 40 -150 105 -68 152 99 308 247
232 54 -28 89 -26 114 6 42 53 21 99 -61 134 -71 31 -177 37 -240 13z"/>
<path d="M4415 4335 l-25 -24 0 -279 c0 -267 1 -280 21 -306 26 -33 79 -36
109 -6 16 16 20 33 20 85 0 36 3 65 7 65 4 0 46 -38 94 -85 70 -69 92 -85 117
-85 37 0 69 26 78 63 6 25 -4 39 -117 153 l-124 125 40 36 c130 117 185 175
185 197 0 39 -37 76 -76 76 -28 0 -47 -12 -116 -76 l-83 -76 -3 61 c-2 51 -7
63 -29 81 -34 27 -69 25 -98 -5z"/>
<path d="M4995 4335 c-25 -24 -25 -27 -25 -190 0 -152 2 -167 20 -185 12 -12
33 -20 55 -20 22 0 43 8 55 20 18 18 20 33 20 185 0 163 0 166 -25 190 -13 14
-36 25 -50 25 -14 0 -37 -11 -50 -25z"/>
<path d="M5010 3847 c-14 -7 -28 -27 -34 -45 -21 -74 76 -125 124 -65 23 29
22 76 -3 100 -20 19 -60 24 -87 10z"/>
<path d="M1519 3765 c-61 -20 -136 -87 -165 -150 -51 -108 -85 5 546 -1820
314 -907 580 -1664 593 -1683 103 -153 365 -137 446 28 9 19 66 184 126 366
118 362 120 372 61 400 -29 14 -37 15 -62 3 -27 -13 -37 -37 -144 -360 -63
-190 -121 -353 -128 -362 -36 -43 -121 -46 -160 -4 -26 28 46 -176 -603 1700
-359 1038 -549 1601 -549 1627 0 49 37 95 90 111 36 11 49 8 157 -29 65 -22
804 -275 1643 -562 839 -286 1536 -529 1550 -539 78 -56 53 -172 -44 -200
-138 -39 -1516 -486 -1532 -496 -17 -11 -42 -78 -108 -279 -47 -145 -86 -278
-86 -295 0 -53 80 -83 122 -44 10 9 50 116 94 252 42 130 79 239 83 243 3 4
349 117 769 251 841 269 813 258 866 360 58 113 26 264 -70 330 -55 39 -3328
1159 -3399 1163 -27 2 -71 -3 -96 -11z"/>
</g>
</svg>
