<svg xmlns="http://www.w3.org/2000/svg"  viewBox="0 0 128 128" width="512px" height="512px"><path fill="#fff" d="M86,9H32c-5.5,0-10,4.5-10,10v90c0,5.5,4.5,10,10,10h64c5.5,0,10-4.5,10-10V29C106,18,97,9,86,9z"/><path fill="#ff5576" d="M57 58L57 80 76 69z"/><path fill="#ff5576" d="M57,83c-0.5,0-1-0.1-1.5-0.4C54.6,82.1,54,81.1,54,80V58c0-1.1,0.6-2.1,1.5-2.6c0.9-0.5,2.1-0.5,3,0l19,11c0.9,0.5,1.5,1.5,1.5,2.6s-0.6,2.1-1.5,2.6l-19,11C58,82.9,57.5,83,57,83z M60,63.2v11.6L70,69L60,63.2z"/><g><path fill="#444b54" d="M102.3,12.8C97.9,8.4,92.2,6,86,6c0,0,0,0,0,0H32c-7.2,0-13,5.8-13,13v90c0,7.3,5.9,13,11,13h63.8c8.7,0,15-5.5,15-13l0.1-67c0-1.7-1.3-3-3-3c0,0,0,0,0,0c-1.7,0-3,1.3-3,3l-0.1,67c0,4.2-3.6,7-9,7H30c-1.7,0-5-3-5-7V19c0-3.9,3.1-7,7-7h51v7c0,7.2,5.8,13,13,13h9.6c0.1,0,0.2,0,0.4,0c0,0,0,0,0,0c1.2,0,2.3-0.8,2.8-1.8c0.2-0.4,0.3-0.8,0.3-1.2c0-0.1,0-0.3,0-0.4C108.9,22.6,106.5,17,102.3,12.8z M89,19v-6.7c3.4,0.6,6.5,2.2,9,4.7c2.5,2.5,4.1,5.6,4.7,9H96C92.1,26,89,22.9,89,19z"/></g></svg>